<svg xmlns="http://www.w3.org/2000/svg" xml:space="preserve" id="图层_1" width="250" height="250" x="0" y="0" version="1.1"><style id="style485" type="text/css">.st0{fill:#717071}.st1{font-family:&quot;MicrosoftYaHei&quot;}.st2{font-size:9px}.st3{fill:#0096c2}.st4{font-family:&quot;MicrosoftYaHei-Bold&quot;}.st5{font-size:12.29px}.st6{font-size:8px}.st7{fill:#1c385a}.st9{fill:#fff}.st10{font-size:27.043px}.st11{font-size:7.1692px}.st12{font-size:6.6571px}</style><circle id="path1043" cx="125" cy="125" r="125" style="fill:#fff;stroke-width:.377953"/><path id="path909" d="m207.511 160.757.335.145-.033.078c-.246.558-.324 1.004-.224 1.316.1.324.413.592.915.815l3.035 1.35 6.628-1.361c.39-.09.714-.235.97-.447.257-.2.48-.49.67-.859l.335.145-2.254 5.077-.324-.145c.168-.502.257-.859.268-1.082.011-.223-.056-.368-.2-.424-.157-.067-.425-.078-.782-.011-.022.01-.044.01-.055.01l-4.921.95 2.421 3.748c.235.369.402.614.491.726a1 1 0 0 0 .28.234c.144.067.3.034.457-.1.156-.134.345-.424.59-.86l.336.146-1.529 3.436-.335-.145c.123-.335.157-.67.09-.993-.067-.323-.28-.77-.636-1.339l-3.102-4.887-3.325-1.484c-.469-.212-.837-.235-1.116-.09-.279.146-.569.536-.87 1.161l-.335-.145zm3.348-4.575a9.541 9.541 0 0 1-.402-2.589 8.66 8.66 0 0 1 .346-2.555c.547-1.897 1.529-3.27 2.934-4.118 1.417-.848 3.013-1.026 4.765-.524 1.818.524 3.135 1.54 3.95 3.046.814 1.518.948 3.203.412 5.088a7.021 7.021 0 0 1-.993 2.087c-.446.658-.68 1.026-.703 1.093a.479.479 0 0 0 .067.402c.078.134.212.246.402.357l-.078.29-3.615-.848.1-.346c1.183-.111 2.087-.401 2.723-.87.636-.469 1.082-1.205 1.372-2.187.39-1.373.223-2.611-.524-3.716-.737-1.104-1.92-1.897-3.548-2.365-1.64-.469-3.069-.424-4.296.134-1.216.569-2.03 1.54-2.433 2.945a4.55 4.55 0 0 0-.178 1.54c.022.513.134.971.335 1.362l3.124.892c.67.19 1.104.212 1.305.067.201-.145.435-.602.692-1.372l.368.1-1.417 4.943-.368-.1c.145-.57.156-.96.056-1.194-.112-.223-.458-.424-1.038-.592zm10.03-25.419c1.875.235 3.314.982 4.307 2.243.993 1.272 1.384 2.834 1.15 4.686-.224 1.864-.982 3.292-2.254 4.274-1.272.993-2.845 1.361-4.731 1.138-1.886-.234-3.325-.982-4.33-2.243-1.004-1.272-1.383-2.834-1.16-4.697.223-1.852.982-3.28 2.254-4.263 1.294-.993 2.879-1.372 4.764-1.138zm-.245 2.053c-1.718-.212-3.124-.01-4.218.614-1.093.614-1.718 1.551-1.874 2.812-.156 1.26.223 2.32 1.138 3.191.915.87 2.232 1.406 3.95 1.618 1.707.212 3.102 0 4.195-.614 1.094-.613 1.718-1.562 1.875-2.823.156-1.26-.224-2.32-1.138-3.18-.915-.87-2.22-1.406-3.928-1.618zm-5.824-15.153.368-.01v.089c.011.636.145 1.07.39 1.305.246.234.737.335 1.45.324l7.822-.134c.703-.011 1.15-.134 1.34-.368.19-.235.278-.692.278-1.395l.369-.011.1 5.467-.368.011v-.089c-.011-.636-.134-1.082-.38-1.328-.245-.245-.68-.357-1.294-.346l-8.078.145c-.536.012-.87.09-1.004.246s-.19.48-.19.982l.034 2.075c.01.893.223 1.618.624 2.187.402.57 1.027 1.027 1.886 1.361l.011.369-3.18-.926zm3.626-15.431c1.863-.324 3.459-.034 4.775.881 1.328.926 2.143 2.299 2.466 4.14.324 1.852.023 3.425-.903 4.742-.927 1.317-2.321 2.142-4.185 2.466-1.874.335-3.47.034-4.797-.881-1.328-.927-2.154-2.299-2.477-4.151-.324-1.841-.023-3.426.914-4.743.927-1.305 2.332-2.13 4.207-2.454zm.357 2.03c-1.707.302-2.99.904-3.86 1.82-.87.914-1.194 1.985-.971 3.235.223 1.25.892 2.154 2.02 2.723 1.126.558 2.543.692 4.25.39 1.696-.301 2.968-.904 3.827-1.819.87-.915 1.183-1.997.971-3.247-.223-1.25-.892-2.153-2.02-2.711-1.115-.558-2.521-.68-4.217-.39zm-8.09-13.166c-.635.2-1.015.446-1.126.714-.112.268-.078.759.089 1.45l-.346.112-1.339-4.117.346-.112c.268.67.536 1.071.781 1.227.246.157.692.123 1.328-.089l7.989-2.6c.312-.346.513-.68.614-.993.1-.323.1-.67.022-1.037l.346-.112.96 2.946-5.925 9.406 6.214-2.02c.636-.2 1.016-.446 1.127-.714.112-.267.078-.747-.089-1.44l.346-.11 1.328 4.094-.346.112c-.268-.658-.525-1.071-.77-1.227-.246-.145-.692-.123-1.328.089l-9.517 3.09-.112-.345 6.706-10.712zm-10.242-15.008.323-.179c.369.603.692.96.993 1.05.302.1.726-.012 1.272-.335l6.985-4.029c.536-.312.837-.624.904-.948.067-.324-.056-.792-.39-1.406l.312-.179 2.711 4.71-.312.178c-.39-.603-.725-.949-1.027-1.038-.301-.09-.714.022-1.25.324l-2.588 1.495c-.19.111-.301.212-.324.312-.022.1.012.246.123.424l2.555 4.43c.09.156.19.246.29.268.1.011.246-.034.458-.156l2.555-1.473c.524-.301.826-.614.904-.926.067-.313-.056-.781-.39-1.406l.312-.19 2.722 4.72-.312.179c-.368-.603-.703-.949-1.004-1.05-.302-.1-.726.012-1.272.324l-6.985 4.028c-.536.313-.837.614-.904.938-.067.312.056.78.39 1.394l-.312.179-2.722-4.72.323-.179c.368.603.703.949 1.004 1.038.302.1.726-.01 1.25-.312l2.868-1.652c.19-.111.312-.212.334-.3.034-.09 0-.213-.089-.38l-2.566-4.441c-.1-.168-.201-.268-.313-.29-.111-.023-.256.01-.435.111l-2.845 1.64c-.536.313-.837.625-.915.927-.078.312.056.78.39 1.394l-.312.179zm1.473-3.303-.056.424c-1.138.067-2.154-.09-3.035-.457-.881-.369-1.651-.96-2.32-1.786-1.195-1.473-1.708-3.012-1.552-4.608.168-1.607.971-2.99 2.421-4.162 1.44-1.172 3.002-1.663 4.676-1.484 1.673.178 3.101.993 4.273 2.444a7.604 7.604 0 0 1 1.116 1.93c.301.736.48 1.138.535 1.216.112.134.246.201.39.212a.596.596 0 0 0 .447-.156l.212.257-2.812 2.722-.234-.279c.636-.948.96-1.874.96-2.767 0-.893-.302-1.718-.926-2.488-.87-1.083-1.975-1.618-3.314-1.63-1.34-.01-2.656.514-3.972 1.585-1.261 1.027-2.031 2.187-2.299 3.493-.279 1.305 0 2.477.837 3.503.569.703 1.227 1.217 1.953 1.54.747.313 1.65.48 2.7.491zm-18.678-16.257.256-.257c.525.469.949.714 1.261.714.313.011.68-.212 1.116-.68l5.512-5.914c.424-.458.625-.837.602-1.15-.022-.312-.29-.725-.792-1.238l.246-.257 7.52 7.007-1.696 2.054-.268-.246c.435-.647.614-1.183.547-1.607-.056-.424-.402-.937-1.038-1.517l-2.22-2.076c-.268-.256-.469-.38-.614-.39-.145-.011-.346.134-.602.413l-2.21 2.365c-.167.179-.256.313-.256.413 0 .09.09.223.279.402l1.751 1.629c.681.636 1.217.97 1.585.993.368.022.792-.19 1.26-.647l.268.245-2.811 3.024-.268-.245c.435-.536.636-.982.591-1.35-.033-.369-.401-.87-1.093-1.507l-1.763-1.64c-.167-.156-.301-.234-.402-.234-.1 0-.234.089-.401.278l-2.455 2.634c-.301.323-.458.569-.458.747-.01.179.112.38.369.614l2.053 1.92c.836.78 1.54 1.216 2.13 1.327.592.112 1.34-.044 2.255-.468l.133.345-2.7 1.518zm-7.7-5.836.213-.301c.625.435 1.093.624 1.406.569.312-.056.703-.402 1.149-1.038l4.92-7.03c.146-.212.201-.357.179-.435-.033-.078-.19-.223-.48-.424l-.245-.167c-.949-.67-1.685-.982-2.22-.949-.525.034-1.105.402-1.719 1.116l-.301-.212 1.852-2.466 8.915 6.249-1.774 2.521-.312-.223c.468-.825.636-1.484.502-1.975-.123-.48-.748-1.116-1.875-1.908-.335-.234-.535-.346-.636-.335-.09.012-.212.112-.346.302l-4.887 6.974c-.49.703-.692 1.205-.614 1.506.09.301.424.67 1.027 1.105l-.2.3zm-15.453-8.648.168-.323c.67.312 1.149.424 1.428.346.29-.079.58-.402.87-.982l3.66-7.175c.279-.558.368-.993.257-1.306-.112-.312-.48-.625-1.105-.937l.178-.335 8.882 4.53-1.116 2.612-.323-.168c.245-.78.267-1.395.078-1.83-.19-.435-.68-.859-1.45-1.25l-2.277-1.16c-.312-.156-.569-.212-.747-.167-.179.055-.335.223-.491.513l-1.473 2.89c-.123.245-.168.413-.145.502.033.09.145.19.357.301l1.417.726c.814.412 1.406.591 1.785.513.368-.078.703-.413 1.004-1.004l.324.167-1.93 3.794-.324-.168c.29-.691.39-1.205.268-1.528-.123-.324-.603-.703-1.45-1.138l-1.44-.737c-.19-.1-.324-.123-.424-.1-.1.033-.2.134-.29.312l-1.518 2.968c-.29.57-.368 1.005-.234 1.328.134.324.524.658 1.194 1.004l-.156.324zm-11.715-10.466c.613-1.786 1.651-3.046 3.09-3.75 1.451-.714 3.058-.758 4.82-.156 1.775.614 3.013 1.64 3.716 3.091.703 1.45.748 3.069.123 4.854-.614 1.797-1.651 3.057-3.102 3.772-1.45.714-3.057.77-4.831.156-1.774-.614-3.002-1.64-3.705-3.102-.691-1.45-.725-3.069-.111-4.865zm1.952.67c-.558 1.64-.658 3.057-.279 4.25.38 1.194 1.16 2.009 2.366 2.422 1.205.413 2.32.268 3.358-.446 1.038-.715 1.841-1.886 2.4-3.526.557-1.63.646-3.035.267-4.23-.38-1.193-1.172-2.008-2.365-2.42-1.194-.414-2.31-.269-3.348.446-1.037.714-1.83 1.874-2.399 3.503zm-18.064 3.012.045-.357.089.011c.614.078 1.049.011 1.328-.178.279-.19.446-.57.513-1.116l.402-3.292-3.247-5.936a2.5 2.5 0 0 0-.703-.804c-.268-.19-.614-.312-1.016-.379l.045-.357 5.512.68-.045.358c-.524-.023-.903 0-1.115.056-.212.055-.335.156-.346.312-.023.167.055.424.223.759.01.022.022.033.033.044l2.343 4.419 2.868-3.414c.29-.335.469-.558.558-.692.078-.134.134-.235.145-.335.022-.156-.056-.301-.223-.402-.179-.1-.502-.212-.993-.312l.044-.357 3.738.457-.044.357a1.812 1.812 0 0 0-.982.201c-.29.156-.659.491-1.094.993l-3.76 4.397-.446 3.615c-.067.502.022.87.245 1.093.223.224.68.391 1.361.491l-.044.357zm-13.568-.179v-.368c.759 0 1.25-.111 1.484-.335.234-.223.346-.725.346-1.506v-8.58c0-.257-.033-.413-.112-.458-.066-.045-.29-.078-.636-.078h-.29c-1.16 0-1.952.167-2.354.49-.413.336-.67.96-.77 1.898h-.368l.1-3.091h10.89v3.09h-.379c-.1-.948-.335-1.573-.714-1.907-.38-.324-1.26-.491-2.622-.491-.402 0-.636.033-.703.089-.067.056-.112.212-.112.446v8.514c0 .86.123 1.384.357 1.584.246.201.726.302 1.473.324l.011.368h-5.6zm-9.897 1.317-.044-.357c.691-.1 1.149-.268 1.35-.513.212-.235.279-.67.2-1.306l-.981-8c-.078-.614-.246-1.016-.514-1.205-.267-.19-.747-.246-1.428-.179l-.044-.357 5.422-.67.034.369c-.703.111-1.16.29-1.361.535-.201.246-.268.67-.19 1.284l.982 8c.078.614.245 1.016.513 1.205.268.19.748.246 1.44.179l.055.357zm-9.272 2.276-1.517-3.626.357-.078c.636.915 1.339 1.584 2.086 1.997.748.413 1.484.547 2.187.38.625-.145 1.094-.458 1.428-.96a2.038 2.038 0 0 0 .29-1.63 2.067 2.067 0 0 0-.702-1.126c-.369-.313-.882-.57-1.551-.781l-2.087-.68c-.892-.28-1.573-.626-2.03-1.039a2.912 2.912 0 0 1-.904-1.562c-.201-.892-.056-1.696.446-2.41.502-.714 1.26-1.183 2.287-1.417.469-.112.993-.134 1.562-.078.57.056.915.067 1.005.045a.416.416 0 0 0 .267-.201c.056-.112.067-.246.056-.435l.301-.067 1.205 3.447-.357.079c-.557-.882-1.16-1.507-1.807-1.886-.647-.38-1.317-.491-1.997-.335-.58.134-1.016.402-1.306.815a1.66 1.66 0 0 0-.256 1.394c.089.402.3.737.636 1.016.334.268.836.524 1.54.747l2.309.726c.948.312 1.64.67 2.086 1.082.447.413.748.948.904 1.618.235 1.004.078 1.897-.468 2.656-.536.758-1.384 1.272-2.533 1.54a6.092 6.092 0 0 1-1.707.145c-.603-.023-.926-.034-.982-.012a.595.595 0 0 0-.357.201c-.078.09-.112.212-.112.368zm-13.925 5.2-.134-.335.201-.078c.558-.223.904-.502 1.027-.814.123-.313.067-.77-.179-1.373l-3.023-7.487c-.224-.547-.48-.86-.781-.96-.302-.1-.793-.01-1.473.246l-.134-.335 5.657-2.287c1.25-.502 2.31-.647 3.169-.424.859.223 1.472.803 1.852 1.74.29.726.301 1.429.033 2.098-.268.67-.814 1.295-1.629 1.864 2.21 1.283 3.816 2.142 4.82 2.6 1.005.457 1.685.636 2.031.535l.134.335-2.522 1.015a59.888 59.888 0 0 1-3.035-1.54 81.978 81.978 0 0 1-3.18-1.84l-1.015.412c-.156.067-.257.134-.301.223-.045.09-.034.201.022.346l1.116 2.756c.245.603.524.971.848 1.105.323.134.781.078 1.395-.167l.145-.056.134.335zm.96-7.442c.056.145.145.245.234.279.09.033.212.022.368-.034 1.34-.547 2.232-1.138 2.667-1.785.446-.647.48-1.417.123-2.299-.324-.814-.826-1.305-1.473-1.484-.658-.178-1.529-.045-2.622.402-.49.2-.781.38-.86.535-.077.157-.044.424.112.793zm-12.44 13.925-.168-.324c.613-.357.97-.68 1.07-.981.112-.29.012-.715-.3-1.272l-3.917-7.064c-.301-.546-.602-.848-.915-.926-.3-.078-.78.056-1.428.368l-.167-.312 8.993-4.977 1.428 2.243-.324.179c-.48-.603-.926-.949-1.36-1.027-.425-.078-1.016.09-1.764.514l-2.655 1.472c-.324.179-.502.335-.558.469-.045.134.022.368.2.703l1.563 2.823c.123.223.223.335.312.368.09.023.246-.022.469-.145l2.098-1.16c.814-.458 1.294-.86 1.428-1.194.134-.346.067-.804-.223-1.395l.323-.178 1.997 3.615-.323.178c-.38-.58-.748-.904-1.105-.982-.357-.078-.948.112-1.774.57l-2.109 1.171c-.2.112-.323.212-.346.301-.033.09.012.246.134.469l1.74 3.147c.213.39.403.602.57.67.167.055.402.01.692-.157l2.454-1.361c.993-.547 1.63-1.094 1.92-1.618.278-.536.368-1.295.256-2.288l.368-.022.603 3.035zm-6.093 5.278-9.306-5.233c-.803-.447-1.405-.703-1.818-.76a1.548 1.548 0 0 0-1.138.291l-.224-.29 4.062-3.069.212.302c-.446.39-.714.67-.803.859-.09.19-.067.368.078.558.145.19.78.613 1.919 1.283 1.138.658 3.08 1.73 5.813 3.191l-1.696-7.543a12.488 12.488 0 0 0-.19-.68 1.573 1.573 0 0 0-.2-.413c-.157-.212-.346-.301-.57-.268-.223.022-.546.19-.981.48l-.224-.29 2.901-2.187.224.29c-.246.212-.391.48-.436.803-.044.324.023.86.212 1.63L68.375 55.4zm-9.942 9.25-.256-.257c.468-.513.714-.937.725-1.25.011-.312-.212-.691-.67-1.137l-5.801-5.602c-.447-.424-.826-.636-1.16-.614-.324.023-.737.28-1.228.76l-.268-.257 3.794-3.928.256.257c-.48.535-.714.96-.725 1.272-.011.312.212.691.658 1.115l5.802 5.602c.447.435.837.636 1.15.613.323-.022.736-.278 1.227-.77l.268.246zm-9.138 7.81c.514.425.926.603 1.205.559.29-.056.68-.346 1.172-.87l.279.234-2.723 3.358-.279-.234c.413-.591.614-1.027.603-1.328-.011-.29-.28-.647-.792-1.071l-6.528-5.289c-.457-.078-.848-.067-1.171.033-.324.09-.614.28-.882.547l-.279-.234 1.953-2.41 11.113-.156-5.077-4.107c-.513-.424-.926-.602-1.205-.558-.29.045-.67.335-1.149.86l-.279-.235 2.711-3.347.28.234c-.413.58-.614 1.016-.603 1.317.011.29.279.647.792 1.071l7.777 6.293-.234.28-12.642.211zm-17.15 11.293-.323-.167 2.51-4.72.313.167c-.29.603-.39 1.06-.29 1.361.1.302.491.636 1.15.982l4.552 2.422c1.25.658 2.298.903 3.168.725.87-.19 1.574-.792 2.132-1.841.569-1.06.68-2.053.357-2.98-.324-.926-1.06-1.696-2.22-2.31l-4.553-2.42c-.647-.346-1.138-.47-1.484-.369-.346.09-.68.447-1.015 1.038l-.324-.167 1.986-3.75.312.168c-.256.535-.323.982-.2 1.305.134.335.513.67 1.138 1.005l4.34 2.31c1.495.791 2.432 1.773 2.8 2.934.369 1.16.168 2.466-.613 3.939-.402.747-.848 1.372-1.361 1.863-.514.491-1.05.826-1.618 1.004a3.463 3.463 0 0 1-1.663.067c-.58-.111-1.283-.39-2.108-.825l-3.984-2.12c-.948-.503-1.606-.726-1.986-.648-.335.056-.692.402-1.015 1.027zM38.83 95.18c.245.87.357 1.74.357 2.6 0 .859-.134 1.707-.39 2.555-.58 1.885-1.585 3.236-3.013 4.061-1.428.826-3.024.971-4.776.436-1.818-.558-3.113-1.596-3.894-3.125-.78-1.528-.892-3.225-.323-5.1a7.35 7.35 0 0 1 1.026-2.075c.458-.647.703-1.015.714-1.07a.473.473 0 0 0-.055-.402c-.079-.134-.212-.246-.391-.357l.078-.29 3.593.903-.112.346c-1.182.09-2.097.357-2.733.826-.636.457-1.105 1.183-1.406 2.153-.413 1.362-.268 2.6.457 3.727.726 1.127 1.886 1.93 3.504 2.422 1.629.502 3.057.48 4.296-.067 1.227-.547 2.053-1.507 2.477-2.901a4.888 4.888 0 0 0 .212-1.54 3.756 3.756 0 0 0-.302-1.373l-3.102-.948c-.669-.201-1.104-.235-1.305-.09-.212.146-.446.603-.714 1.362l-.368-.112 1.506-4.91.368.112c-.156.558-.178.96-.078 1.183.1.223.446.435 1.038.614zm-5.769 23.209c.659.09 1.105.044 1.317-.145.223-.19.402-.647.558-1.35l.357.055-.603 4.285-.357-.056c.045-.714-.01-1.205-.167-1.45-.156-.246-.57-.413-1.227-.502l-8.324-1.172c-.435.167-.759.38-.993.625-.223.245-.38.558-.469.926l-.357-.056.435-3.068 9.451-5.858-6.472-.904c-.658-.09-1.104-.045-1.316.145-.223.19-.402.636-.547 1.328l-.357-.056.603-4.274.357.056c-.056.714 0 1.194.156 1.44.156.245.569.412 1.227.502l9.908 1.394-.055.357-10.723 6.684zm1.92 10.076h-.369c-.022-.703-.134-1.172-.346-1.406-.212-.235-.636-.357-1.272-.357h-8.055c-.614 0-1.038.122-1.261.368-.223.245-.335.714-.357 1.395h-.369v-5.468l.369.011c.033.714.145 1.183.368 1.417.212.235.636.346 1.25.346h8.055c.625 0 1.038-.122 1.261-.357.223-.245.335-.714.357-1.406l.368-.01zm-11.783 2.722.357-.022c.067.68.223 1.138.469 1.35.245.223.714.301 1.405.257l6.427-.447c1.217-.089 2.154.123 2.834.614.681.491 1.05 1.25 1.116 2.265.045.636-.078 1.16-.346 1.585-.279.424-.647.658-1.116.692a.704.704 0 0 1-.546-.19c-.145-.134-.223-.324-.246-.558a1.01 1.01 0 0 1 .145-.603c.112-.178.302-.323.547-.457l.112-.056c.49-.245.725-.513.714-.803-.023-.268-.123-.458-.302-.58-.178-.123-.446-.168-.803-.146l-8.413.592c-.714.044-1.171.2-1.383.468-.212.257-.29.748-.246 1.462l-.368.022zm13.78 13.089-.357.056c-.123-.692-.313-1.138-.558-1.34-.246-.2-.68-.256-1.306-.156l-7.966 1.261c-.614.1-1.004.28-1.183.558-.179.28-.223.759-.134 1.44l-.357.055-.86-5.4.358-.045c.145.703.335 1.15.58 1.34.246.2.68.245 1.283.144l7.967-1.26c.614-.101 1.015-.28 1.183-.547.178-.268.223-.748.134-1.44l.357-.067zm3.682 12.71-.357.088c-.212-.67-.447-1.093-.714-1.26-.268-.168-.703-.168-1.306.01l-7.766 2.221c-.602.168-.97.402-1.104.68-.134.28-.123.77.044 1.474l-.345.1-2.835-9.875 2.51-.893.101.346c-.703.335-1.138.692-1.305 1.094-.167.402-.134 1.004.1 1.83l.837 2.923c.1.357.212.57.324.647.111.079.357.067.725-.044l3.102-.893c.234-.067.38-.145.435-.223.045-.078.033-.245-.033-.491l-.659-2.299c-.256-.903-.547-1.461-.848-1.662-.301-.212-.77-.246-1.417-.09l-.1-.345 3.972-1.138.1.345c-.647.235-1.048.525-1.205.86-.156.334-.1.948.157 1.852l.669 2.32c.067.224.134.358.223.402.078.056.246.045.491-.033l3.459-.993c.424-.123.68-.257.781-.402.1-.145.1-.39 0-.714l-.77-2.7c-.312-1.094-.692-1.841-1.15-2.232-.457-.39-1.17-.647-2.175-.759l.067-.357 3.09.09zm5.266 11.626-.335.145c-.3-.636-.59-1.027-.881-1.15-.29-.122-.725-.066-1.283.19l-7.387 3.292c-.569.257-.914.536-1.004.837-.089.301-.01.781.246 1.44l-.324.144-2.343-5.266c-.569-1.295-.792-2.4-.636-3.314.156-.915.647-1.574 1.495-1.942a2.472 2.472 0 0 1 1.763-.111c.603.178 1.16.58 1.674 1.194-.223-.96-.201-1.763.056-2.422.256-.658.736-1.138 1.45-1.45 1.071-.48 2.03-.436 2.901.134.87.557 1.663 1.673 2.399 3.325zm-2.923-2.723c.312-.134.49-.301.535-.49.045-.19-.055-.57-.312-1.15l-.156-.346c-.424-.96-.96-1.595-1.607-1.92-.636-.311-1.35-.3-2.131.046-.803.357-1.283.892-1.44 1.617-.156.726.012 1.64.503 2.734l.279.614c.134.312.256.49.357.524.1.045.268.012.524-.1zm-5.233 2.332c.312-.145.49-.256.535-.334.045-.09 0-.268-.122-.547l-.112-.257c-.535-1.194-1.093-1.975-1.673-2.343-.58-.368-1.272-.368-2.065-.022-.758.334-1.216.825-1.36 1.44-.146.624.021 1.45.479 2.487.268.592.468.927.625 1.005.156.078.424.033.792-.134zm96.95 39.556v-3.236c0-.703.055-1.238.156-1.595.1-.357.267-.692.49-1.004a3.703 3.703 0 0 1 1.328-1.094 3.84 3.84 0 0 1 1.719-.38c1.149 0 2.041.358 2.71 1.06.66.715.994 1.697.994 2.946v3.348c0 .591-.045 1.082-.145 1.462-.1.39-.246.725-.458 1.026-.345.491-.792.86-1.327 1.127a3.91 3.91 0 0 1-1.774.402 3.84 3.84 0 0 1-1.719-.38 3.977 3.977 0 0 1-1.35-1.093c-.223-.279-.38-.625-.48-1.027a7.355 7.355 0 0 1-.145-1.562zm1.06.235c0 .903.234 1.606.702 2.12.469.502 1.105.758 1.93.758.826 0 1.462-.256 1.93-.747.458-.502.693-1.194.693-2.098v-3.771c0-.893-.235-1.585-.703-2.087-.469-.502-1.105-.748-1.93-.748-.826 0-1.473.257-1.93.76-.47.512-.704 1.215-.704 2.13v3.683zm-6.595-7.32h1.34l-2.545 3.95c.234-.056.446-.09.647-.123a3.02 3.02 0 0 1 .525-.045c.993 0 1.807.346 2.454 1.038.648.692.971 1.562.971 2.6 0 1.071-.357 1.964-1.06 2.667-.703.703-1.595 1.06-2.678 1.06-1.06 0-1.941-.346-2.633-1.038-.703-.692-1.049-1.55-1.049-2.566 0-.87.447-1.998 1.35-3.392.09-.134.157-.235.201-.313zm-.256 4.742c-.748 0-1.373.257-1.886.781-.502.525-.759 1.16-.759 1.92 0 .77.257 1.416.781 1.952.525.536 1.15.803 1.886.803.714 0 1.316-.256 1.796-.77.48-.513.725-1.171.725-1.963 0-.793-.234-1.44-.714-1.953-.49-.513-1.093-.77-1.83-.77zm-9.92 6.193h-1.339l2.544-3.961c-.234.056-.446.089-.647.122-.19.034-.368.045-.535.045-.993 0-1.808-.346-2.455-1.038-.647-.691-.97-1.562-.97-2.6 0-1.07.345-1.963 1.048-2.666.703-.703 1.584-1.06 2.667-1.06 1.06 0 1.941.346 2.644 1.037.703.692 1.06 1.54 1.06 2.556 0 .881-.446 2.008-1.35 3.392-.09.134-.145.234-.19.312zm.257-4.754c.747 0 1.372-.256 1.886-.78.502-.525.758-1.161.758-1.92 0-.77-.256-1.417-.78-1.941a2.554 2.554 0 0 0-1.886-.793c-.714 0-1.317.257-1.797.77-.48.514-.725 1.16-.725 1.953 0 .792.234 1.44.714 1.953.491.502 1.094.758 1.83.758zm-8.759 4.754h-1.138v-9.987h-1.908v-.937h3.046zm93.892-166.023C184.08 25.284 156.008 12.72 125 12.72c-31.007 0-59.08 12.565-79.398 32.884C25.283 65.923 12.72 93.997 12.72 125.006c0 31.008 12.563 59.082 32.882 79.402C65.92 224.727 93.992 237.29 125 237.29c31.007 0 59.08-12.564 79.398-32.883 20.319-20.32 32.882-48.394 32.882-79.402 0-31.01-12.563-59.083-32.882-79.402zM125 8.045c32.29 0 61.535 13.089 82.701 34.256 21.166 21.167 34.254 50.402 34.254 82.705 0 32.291-13.088 61.537-34.254 82.704-21.166 21.167-50.4 34.256-82.701 34.256-32.29 0-61.535-13.089-82.701-34.256-21.166-21.167-34.254-50.401-34.254-82.704 0-32.292 13.088-61.538 34.254-82.705C63.465 21.134 92.709 8.045 125 8.045ZM77.379 84.758l80.559-.156c12.34.312 17.997 10.321 16.68 19.303-.926 6.282-6.438 11.304-8.714 11.84 6.237 1.818 11.002 6.973 11.928 13.132 2.142 14.194-10.767 19.371-15.264 19.226l-85.446.011.179-8.815 62.438.056c12.653-1.205 10.321-15.856 0-16.18l-62.316.157-.044-8.324 61.69.223c7.677-.759 11.895-9.987 9.385-15.8l-48.537.033V96.15l46.428.1c-2.12-2.487-6.784-3.826-10.834-3.737l-58.21.033zm22.661 48.739h26.812l.067-4.207h-26.812zm0-24.347h26.801l.067-4.207h-26.812zm65.619 64.394c-.257-.703-1.384-.882-2.076-.435-1.048.67-1.528 1.964-2.666 2.588-.302.168-.592.715-1.071.436-.402-.324-.079-1.116-.079-1.674.012-1.35.268-2.544 0-3.906-.223-1.115-3.269-3.035-4.418-3.224a2.89 2.89 0 0 1-.324.156c-1.205 2.064.257 2.856.87 4.296.391.915.971 6.059.514 6.963-.312.636-2.053 1.439-2.711 1.874-1.54 1.027-3.17 2.11-4.932 2.868-.725.29-1.462.58-2.187.881-.547.145-.926-.055-1.317.201-.513 2.477.614 3.47 2.99 2.667 1.485-.502 2.679-1.707 3.705-2.711.882-.86 2.566-2.098 3.66-2.712.09.011.19.022.279.045.446.725-.145 1.863-.48 2.544-.97 1.997-2.51 3.57-4.697 4.296-1.072.357-2.69-.067-3.147.96.045.089.078.189.123.278.937.235 2.376.112 3.347-.044.28.022.558.055.837.078 2.957-.659 4.33-1.63 5.735-3.861.312-.49.803-1.071.96-1.674.345-1.417.468-2.711.881-3.983.145-.447-.033-1.038.2-1.35.447-.603 1.284-1.038 1.987-1.395.39-.324.77-.636 1.15-.96.568-.413 1.182-.703 1.706-1.116.48-.345 1.54-1.06 1.16-2.086zm-30.729 5.3c-.167-.078-.2-.067-.279-.234-.345-1.239 1.674-2.489 2.51-2.745.48-.145.615.145 1.15-.201.268.011.301.022.357.234.134.558-3.113 2.667-3.738 2.946zm.636-5.534c-.055.078-.044.066-.122.122-.078-.056-.067-.033-.123-.122-.022-.146-.056-.29-.078-.436l.123-.156c.078.011.156.022.234.045.044.178.056.401-.034.547zm-.245-2.232c.167-.357.636-.502.96-.714h.122c.29.502-.245 1.037-.602 1.272h-.402c-.112-.168-.179-.346-.078-.558zm.323 20.464c-.3.312-.714.38-1.35.357-.089-.123-.19-.234-.279-.357.1-.68.648-.893 1.072-1.238h.279c.022.01.055.022.078.044.178.29.212.67.2 1.194zm4.698-24.481h.123c.323.725-1.194 1.774-1.551 2.232h-.235c-.814-1.317 1.027-1.775 1.663-2.232zm7.32 2.778c-.514-.915-1.53-.859-2.511-.48-.636.246-1.016.703-1.518 1.038-1.07.703-2.22 1.272-3.302 1.908-.413.246-1.998 1.306-2.232.882-.212-.525.09-1.786.402-1.986.413-.123.826-.235 1.238-.357 1.585-.659 4.173-2.388 4.776-3.984-.28-.77-1.651-1.841-2.79-1.629-.915.167-1.64.826-2.31 1.272-.825-.123-.01-2.131-1.83-2.154-.69.703-.735 1.53-.635 2.712.022.223.056.446.078.68-.156.648-1.049 1.35-1.473 1.797-.09-.011-.19-.022-.279-.045-.546-1.25-.535-2.956-2.343-2.343-.268.469.156.86 0 1.518-.145.39-.29.77-.435 1.15-.1.423.045.925-.156 1.238-.68 1.026-2.667.948-3.705 1.629-.279 1.07 1.518 2.231 2.712 2.03.558-.089.736-.401 1.238-.513.458.335.915 1.105 1.83.915.39-.078.558-.323 1.038-.357h.044c.078.123.157.212.078.402-.312.535-2.945 1.618-3.66 2.03-1.606.916-3.347 1.797-4.897 2.79-.96.614-1.842 1.507-2.823 2.11-.826.501-3.705 1.706-3.381 2.99.067.111.134.212.2.323.625.145 1.083-.011 1.674-.123.726-.122 1.462-.234 2.187-.357 1.507-.591 2.332-1.964 3.548-2.823.603-.435 1.172-.77 1.797-1.194.613-.413 1.149-1.272 2.075-1.316l.123.122c-.29 1.038-.792 1.574 0 2.59 1.294.267 1.473-1.15 2.187-1.708.49-.38.948-.68 1.55-.96.246-.111.402-.279.76-.2.066.044.133.078.2.122-.09.335-.513.324-.792.435-.212 1.16-.524 1.674-1.428 2.076-.435.19-.748.19-.96.591l-.044.234c.68.715.937.224 1.629.637.122.066.134.111.2.234-.022.123-.055.234-.078.357-.178.245-.993.279-1.272.402-.401 1.138.87 1.127 1.239 1.83.011.089.022.19.045.278-.235.235-1.083.547-1.194.837-.302.77 1.506 1.395.636 2.355-.246.268-3.225 1.25-3.783 1.35-.39.078-.703-.212-1.037 0-1.596.993 1.082 2.98 2.03 3.068.647-.613.39-1.64 1.15-2.064.803.078 1.93.725 2.51 1.15.212.234.424.48.636.714 1.863.368.759-1.384 1.194-2.266.257-.535 2.9-1.651 3.66-1.83.792-1.327-.87-2.6-1.708-2.912-.97.48-.602 2.466-1.629 2.99-.089.012-.19.023-.278.045l-.123-.123c-.246-1.785.39-3.347.915-4.62.267-.646 1.06-1.606.915-2.543-.078-.402-.157-.792-.235-1.194-.167-.246-.546-.19-.792-.357-.223-.38-.446-.77-.68-1.15v-.044c.223-.034.29.067.513.123l.234-.201c.09-.558-.245-.982.045-1.428.134-.224.39-.28.602-.436.893-.658 2.522-1.606 3.024-2.588-.034-.804-1.361-1.74-2.388-1.239-.312.156-.39.402-.837.558h-.122l.044-.2c.904-.57 1.92-1.396 3.024-1.708.279.045.558.078.837.123.513-.235 1.037-.48 1.55-.714.838-.257 1.217.1 1.987-.402.435-.357 1.874-1.071 1.305-2.087zm25.439 13.022c-.234.156-.48.324-.714.48l-.201.993c-.324.747-1.294 1.874-.993 2.868.223.48 1.406 1.405 2.153 1.193 1.384-.59 2.198-5.59-.245-5.534zm12.43-8.76-.402-.234c-.2-.747.078-1.36.558-1.673h.2c.436.647.257 1.673-.356 1.908zm5.054-.356c-.703.38-.602 1.383-1.752 1.428-.022-.011-.055-.022-.078-.045-.234-1.082.904-2.02 1.395-2.711.156-.301.324-.614.48-.915.145-.123.29-.234.435-.357.044-.168.078-.346.123-.513.446-.715 1.305-1.473 1.55-2.355.213-.77-.122-1.272-.234-1.83-.747-.446-1.752-.245-2.666-.078l-.436 1.071c.157.268.324.536.48.793.145.58-.335 1.015-.48 1.35-.557 1.26-1.093 2.432-1.796 3.503-.045.023-.078.056-.123.079-.19-.592-.067-1.24.034-1.83-.235-.447-1.138-.58-1.194-.837.056-.168.1-.346.156-.514.246-1.037-.178-1.595-1.071-1.796-.09-.134-.123-.19-.123-.435 1.049-1.027 1.34-2.21.078-3.225-.446-.357-.814-.703-1.673-.68-.223.133-.435.156-.558.401-.246.658.502.926.357 1.518-.078.29-.87 1.963-1.071 2.231-.447.58-1.797.413-2.355 1.116-.01.067-.022.134-.044.2.29.414.97.37 1.194.793v.123c-.223.569-.804.904-1.15 1.35v.402a.547.547 0 0 0 .045.122c.123.012.234.023.357.045.413-.257.826-.502 1.239-.759.357-.1.714-.212 1.07-.323.269-.19.213-.469.637-.558h.044c.28.614-.49 1.863-.792 2.265-.58.112-1.328-.011-1.796.2-.078.313-.179.626-.123.96.335.179.748.246.915.603.279.915-1.317 2.365-1.428 3.225.056.022.1.055.156.078.781.301 2.845-1.618 3.18-2.065 1.25.023 1.406.067 2.153-.48h.201c.257.235.67.614.513 1.117-.3.636-1.26.77-1.908 1.07-1.138.525-4.518 2.958-5.935 2.59-.168-.335-.079-.96-.201-1.35-.413-1.35-1.596-3.538-3.225-3.549-.547.547.212 1.194.357 1.796.558 2.355-.178 2.678 2.265 3.426.09.179.067.279 0 .48-.234.145-.636.245-.792.48-.011.078-.022.156-.045.234.346.346 2.756.67 3.303.279 1.518-1.082 2.935-2.21 4.575-3.225.357-.234.714-.48 1.07-.714.18-.011.347-.022.514-.045.502-.212 1.462-1.138 2.075-.96l.157.124c-.235 1.84-4.196 3.871-5.456 5.177v.2l.044.045c1.306-.156 2.421-.993 3.46-1.428l1.907-.402c1.975-.825 3.202-2.432 4.385-4.061.212-.29.647-.39.792-.759.513-1.171-1.908-2.745-3.19-2.075zm-1.629 11.47c-.212-.1-.435-.39-.837-.279-.993.268-1.807 1.942-3.146 1.596-.413-.815.904-1.283.636-2.388-.29-1.16-2.198-1.272-3.504-1.395l-.2.123c-.782 2.064.747 1.573 1.238 2.51.145.414-.38.983-.48 1.429-.067.346-.011.736-.078.993-.759.491-1.618.815-2.432 1.317l-.436.401c-.725.335-1.785.168-2.31.681v.156c.693.592 2.21 1.25 3.627.837.68-.335 1.35-.658 2.03-.993.124.067.135.067.202.2.111.325-.123.76-.201 1.039-.826 2.845-3.247.346-5.21 1.194l-.045.122c.1 1.34 3.76 2.455 5.333 1.83 1.049-.413 2.957-1.752 2.589-3.459-.146-.703-.536-1.55-.681-2.109.167-.267.357-.435.68-.558h.201c.067.38-.245.48-.323.837.58.1.837-.468 1.194-.714.446-.312.915-.703 1.428-.915.703-.29 1.473-.39 2.03-.792.224-1.027-.602-1.35-1.305-1.663zm-20.385.078c-.312-.468-2.31-1.327-2.99-1.595-.625-.246-.781-.692-1.797-.68-.256.066-.502.133-.758.2-.715 1.138.49 1.819.96 2.51.412.614.334 1.262.68 1.953.546 1.116 2.42 1.116 3.905.837.569-.848.569-.948.323-2.03-.111-.458-.1-.86-.323-1.195zm-51.326-7.688c-.212.157-.424.324-.636.48-.569.335-1.216.536-1.751.837l-3.984 1.674-.122-.045c-.134-.323.669-1.952.881-2.388.38-.77.77-1.54 1.15-2.31.713-1.082 1.706-2.13 2.108-3.503.39-1.328-1.897-2.622-3.18-2.589-1.16.525-2.622.525-4.262.514h-1.707c-.357.19-.714.368-1.071.557-.58 1.005 2.22 3.962 3.704 3.66.87-.178 1.272-1.082 1.953-1.428l.234-.045c.257.614-.324 1.34-.513 1.797-.592 1.428-.804 2.8-1.116 4.62-.1.58-.402 1.35-.045 1.796-.111.792-2.287 1.272-2.99 1.629-1.752.893-3.537 1.785-5.49 2.51-1.127.425-3.347.916-3.86 1.83.145 1.25 2.254 2.902 3.827 1.953 2.667-1.618 5.4-3.135 8.045-4.82.703-.446 2.343-1.852 3.224-1.875l.045.045v.123c-.335.29-.603.513-.882.87.078.156.078.156.235.234 1.216-.558 2.555-1.272 3.827-1.751l1.194-.201c1.327-.458 3.035-1.072 3.782-2.11.123-.87-1.44-2.342-2.6-2.064zm-25.952-.636c.145-.68 1.483-2.332 2.075-2.544.547-.881-.402-1.919-1.272-1.908-.692.335-.993.815-1.596 1.15a432.2 432.2 0 0 1-3.66 2.108c-.457.257-1.718.681-1.952 1.072l-.045.234c1.395.87 2.254-.67 3.627-.603.279.436-.012 1.005-.357 1.273-1.217.948-2.265 1.807-3.147 3.101h-.078c-.223-.345-.446-.691-.68-1.037-.324-.402-.704-.558-.96-1.071-.792-.023-1.529 0-1.797.513.1.97.793 1.785 1.038 2.667l.234 1.037c.436.212.882.424 1.317.636.915-.044.948-.591 1.317-1.194.245-.323.825-.055 1.238-.234l1.395-.993c.547-.234 1.093-.48 1.629-.714.647-.48 1.383-1.585 1.674-2.388.145-.39-.1-.647 0-1.105zm4.262-9.395c-1.774-.736-2.912 1.038-3.827.636-.424-.223-.469-.814-.993-.993l-2.031-.123c-.513-.122-1.094-.279-1.752-.279-.279.19-.48.28-.636.592.168 1.74 1.428 1.696 1.986 2.79.011.077.023.156.045.234-.435.435-1.027.68-1.551 1.037-.647.436-1.272 1.083-1.953 1.473-.736.435-1.684.603-2.03 1.395a3.22 3.22 0 0 1-.045.324c.279.212.58.435.993.513.424.09 3.08-.625 3.459-.792.569-.246.948-.938 1.395-1.317.859-.736 1.74-1.127 2.823-1.674.87-.446 1.372-1.283 2.51-1.55l1.071.2c.346-.323 1.495-1.216 1.194-1.953-.112-.334-.335-.379-.658-.513zm-38.74 17.675c.234 1.718-1.595 3.146-1.116 4.463.212.022.424.056.636.078.502-.446 1.071-1.06 1.44-1.629.19-.29.212-.591.48-.792.993-.792 2.186-1.283 2.789-2.466 0-1.495-2.287-2.622-3.86-2.589-.503.145-1.005.29-1.518.435-.993 1.607.982 1.25 1.15 2.5zm6.048-19.94c-1.172.647-.547 1.908-.28 2.99-.055.637-.1 1.273-.156 1.909-.435 2.622-1.093 5.858-.881 8.881.011.927.022 1.864.045 2.79.134.848.424 3.27.2 4.062-.234.825-1.16 1.138-1.595 1.751-.915 1.295-2.243 2.567-3.548 3.46-1.34.926-2.7 1.718-2.99 3.704.334.502.39.48 1.037.714.324.112.558.48 1.116.357 1.26-.279 3.325-3.224 3.983-4.296.29-.48.346-1.16.636-1.595.324-.469.904-1.83 1.674-1.63.424.268.826 1.53 1.707 1.038.524-.256.736-1.718.558-2.51-.2-.904-.491-1.953-.68-3.024-.112-.658.189-1.038.077-1.674-.055-.424-.1-.848-.156-1.272.413-2.32.48-4.575 1.15-6.572.524-1.562 1.428-2.935 1.796-4.542.134-.557-.212-.915-.324-1.272-.435-1.573-1.383-3.28-3.37-3.269zm30.059 18.712c-.614-.825-.982-1.885-2.433-1.874l-.234.2c-.112.458-.09 1.128 0 1.63.09.513-.223.892-.123 1.272.123.19.234.368.357.558.513.97.759 1.584 1.674 2.153 1.104-.01 2.432-1.049 1.908-2.354-.257-.647-.77-1.082-1.15-1.585zm-9.194 4.263c-.447-.38 1.394-1.506 1.707-1.707 1.194.078-.915 2.053-1.707 1.707zm4.34-4.586c-.145-.335-.458-.536-.96-.513-.156.044-.323.078-.48.122-.702.357-.48 1.73-1.16 2.076-.212.044-.424.078-.636.122-.535.257-1.183.547-1.752.882-1.372.792-2.644 1.852-3.983 2.667-.469.256-.926.502-1.395.759-.234.212-.48.424-.714.636-.39.223-.903.2-1.194.513-.19 1.562 1.139 3.258 3.18 2.432.436-.178 2.41-2.79 2.589-3.303.324-.178.714-.055 1.194-.156.96-.212 1.886-.446 2.99-.279.781.112 1.908.39 2.232-.156.602-1.06-.078-2.622-.078-3.704.01-.659.424-1.596.167-2.098zm-16.402 1.796c-.045-.122-.078-.234-.123-.357.491-1.205 1.362-2.376 1.797-3.548.19-.513.167-.982.435-1.395.647-.96 2.588-1.15 2.99-2.31.201-.58-.022-1.461-.402-1.707-.234-.156-.624-.067-.758-.323-.268-.491.435-1.395.602-1.708.971-1.908.201-5.768-1.952-5.768-.502.279-1.306.848-1.429 1.472a58.25 58.25 0 0 1-.044 1.395 67.5 67.5 0 0 1-1.63 4.653c-.334.837-.457 1.74-.914 2.433-.469.714-1.194 1.25-1.908 1.707-.167.078-.346.156-.513.234-.023.145-.056.29-.078.435.267.179.602.235 1.037.28.346.59-.19 1.25-.401 1.796-.558 1.484-2.645 4.787-.793 6.137.369.268.926.402 1.429.2.691-.267 1.383-.535 2.075-.792 1.316-.39 3.548-.412 3.86-1.751.09-.369-.122-.648-.234-.837-.993-1.484-1.84-.134-3.046-.246zm106.177-9.082.045.044c.48-.044 2.588-.123 2.822-.402.09-.468.123-1.093-.044-1.517-.38-.97-2.287-3.225-3.548-3.27-.067.056-.134.101-.201.157-.335 1.328.58 2.856 1.238 3.626-.089.513-.312.781-.312 1.361zM125 0c69.033 0 125 55.958 125 124.994S194.033 250 125 250 0 194.03 0 124.994C0 55.97 55.967 0 125 0Z" style="stroke-width:1;fill-rule:evenodd;clip-rule:evenodd;fill:#0096c2"/></svg>