<?xml version="1.0" encoding="UTF-8"?>
<!DOCTYPE svg PUBLIC "-//W3C//DTD SVG 1.1//EN" "http://www.w3.org/Graphics/SVG/1.1/DTD/svg11.dtd">
<svg xmlns="http://www.w3.org/2000/svg" version="1.1" width="500px" height="500px" style="shape-rendering:geometricPrecision; text-rendering:geometricPrecision; image-rendering:optimizeQuality; fill-rule:evenodd; clip-rule:evenodd" xmlns:xlink="http://www.w3.org/1999/xlink">
<g><path style="opacity:0" fill="#fefefe" d="M -0.5,-0.5 C 166.167,-0.5 332.833,-0.5 499.5,-0.5C 499.5,166.167 499.5,332.833 499.5,499.5C 332.833,499.5 166.167,499.5 -0.5,499.5C -0.5,332.833 -0.5,166.167 -0.5,-0.5 Z"/></g>
<g><path style="opacity:1" fill="#0296c2" d="M 28.5,79.5 C 151.834,79.3333 275.167,79.5 398.5,80C 432.007,84.505 453.507,103.005 463,135.5C 469.759,171.8 457.592,199.633 426.5,219C 464.006,233.16 481.506,260.327 479,300.5C 472.093,335.74 450.926,356.573 415.5,363C 286.167,363.5 156.834,363.667 27.5,363.5C 27.7383,350.497 28.0716,337.497 28.5,324.5C 122.501,324.667 216.501,324.5 310.5,324C 340.198,319.076 351.031,302.242 343,273.5C 337.126,262.973 328.293,256.14 316.5,253C 220.501,252.5 124.501,252.333 28.5,252.5C 28.5,240.167 28.5,227.833 28.5,215.5C 85.6653,215.958 142.832,216.291 200,216.5C 236.871,216.651 273.704,216.151 310.5,215C 333.756,207.73 346.923,191.896 350,167.5C 350.927,159.956 350.094,152.623 347.5,145.5C 274.833,145.5 202.167,145.5 129.5,145.5C 129.5,140.833 129.5,136.167 129.5,131.5C 198.834,131.667 268.167,131.5 337.5,131C 327.677,122.72 316.344,117.72 303.5,116C 211.857,114.52 120.19,114.02 28.5,114.5C 28.5,102.833 28.5,91.1667 28.5,79.5 Z"/></g>
<g><path style="opacity:1" fill="#0096c2" d="M 250.5,180.5 C 249.527,182.948 249.194,185.615 249.5,188.5C 209.833,188.5 170.167,188.5 130.5,188.5C 130.5,182.5 130.5,176.5 130.5,170.5C 170.5,170.5 210.5,170.5 250.5,170.5C 250.5,173.833 250.5,177.167 250.5,180.5 Z"/></g>
<g><path style="opacity:1" fill="#3eafd0" d="M 250.5,180.5 C 250.5,183.5 250.5,186.5 250.5,189.5C 210.33,189.832 170.33,189.499 130.5,188.5C 170.167,188.5 209.833,188.5 249.5,188.5C 249.194,185.615 249.527,182.948 250.5,180.5 Z"/></g>
<g><path style="opacity:1" fill="#0096c2" d="M 250.5,289.5 C 249.527,291.948 249.194,294.615 249.5,297.5C 209.833,297.5 170.167,297.5 130.5,297.5C 130.5,291.5 130.5,285.5 130.5,279.5C 170.5,279.5 210.5,279.5 250.5,279.5C 250.5,282.833 250.5,286.167 250.5,289.5 Z"/></g>
<g><path style="opacity:1" fill="#3dafd0" d="M 250.5,289.5 C 250.5,292.5 250.5,295.5 250.5,298.5C 210.33,298.832 170.33,298.499 130.5,297.5C 170.167,297.5 209.833,297.5 249.5,297.5C 249.194,294.615 249.527,291.948 250.5,289.5 Z"/></g>
</svg>
